<svg width="24" height="24" viewBox="0 0 24 24" fill="none" xmlns="http://www.w3.org/2000/svg">
<g clip-path="url(#clip0_2207_21)">
<path d="M2 10C2 18.491 11.126 23.658 11.514 23.874C11.6626 23.9567 11.8299 24 12 24C12.1701 24 12.3374 23.9567 12.486 23.874C12.874 23.658 22 18.491 22 10C22 7.34784 20.9464 4.8043 19.0711 2.92893C17.1957 1.05357 14.6522 0 12 0C9.34784 0 6.8043 1.05357 4.92893 2.92893C3.05357 4.8043 2 7.34784 2 10ZM12 2C14.121 2.00238 16.1544 2.846 17.6542 4.34578C19.154 5.84555 19.9976 7.879 20 10C20 16.274 13.8 20.68 12 21.83C10.2 20.68 4 16.274 4 10C4.00238 7.879 4.846 5.84555 6.34578 4.34578C7.84555 2.846 9.879 2.00238 12 2Z" fill="white"/>
<path d="M12 15C12.9889 15 13.9556 14.7068 14.7779 14.1573C15.6001 13.6079 16.241 12.827 16.6194 11.9134C16.9978 10.9998 17.0969 9.99446 16.9039 9.02455C16.711 8.05465 16.2348 7.16373 15.5355 6.46447C14.8363 5.76521 13.9454 5.289 12.9755 5.09608C12.0055 4.90315 11.0002 5.00217 10.0866 5.3806C9.17295 5.75904 8.39206 6.39991 7.84265 7.22215C7.29324 8.0444 7 9.0111 7 10C7.00159 11.3256 7.52888 12.5964 8.46622 13.5338C9.40356 14.4711 10.6744 14.9984 12 15ZM12 7C12.5933 7 13.1734 7.17595 13.6667 7.50559C14.1601 7.83524 14.5446 8.30377 14.7716 8.85195C14.9987 9.40013 15.0581 10.0033 14.9424 10.5853C14.8266 11.1672 14.5409 11.7018 14.1213 12.1213C13.7018 12.5409 13.1672 12.8266 12.5853 12.9424C12.0033 13.0581 11.4001 12.9987 10.8519 12.7716C10.3038 12.5446 9.83524 12.1601 9.50559 11.6667C9.17595 11.1734 9 10.5933 9 10C9 9.20435 9.31607 8.44129 9.87868 7.87868C10.4413 7.31607 11.2044 7 12 7Z" fill="white"/>
</g>
<defs>
<clipPath id="clip0_2207_21">
<rect width="24" height="24" fill="white"/>
</clipPath>
</defs>
</svg>
