<svg width="18" height="22" viewBox="0 0 18 22" fill="none" xmlns="http://www.w3.org/2000/svg">
<path d="M9 0C6.61305 0 4.32387 0.948212 2.63604 2.63604C0.948211 4.32387 0 6.61305 0 9C0 17 9 22 9 22C9 22 18 17 18 9C18 6.61305 17.0518 4.32387 15.364 2.63604C13.6761 0.948212 11.3869 0 9 0ZM9 13C8.20887 13 7.43552 12.7654 6.77772 12.3259C6.11992 11.8864 5.60723 11.2616 5.30448 10.5307C5.00173 9.79983 4.92252 8.99556 5.07686 8.21964C5.2312 7.44371 5.61216 6.73098 6.17157 6.17157C6.73098 5.61216 7.44371 5.2312 8.21964 5.07686C8.99556 4.92252 9.79983 5.00173 10.5307 5.30448C11.2616 5.60723 11.8864 6.11992 12.3259 6.77772C12.7654 7.43552 13 8.20887 13 9C13 10.0609 12.5786 11.0783 11.8284 11.8284C11.0783 12.5786 10.0609 13 9 13Z" fill="white"/>
</svg>
