<svg width="24" height="24" viewBox="0 0 24 24" fill="none" xmlns="http://www.w3.org/2000/svg">
<path d="M22.7987 17.0158C23.985 14.4701 24.2365 11.5879 23.509 8.87527C22.7816 6.16261 21.1217 3.79293 18.8209 2.18235C16.5201 0.571762 13.7255 -0.176769 10.9277 0.0681929C8.12989 0.313155 5.50783 1.53595 3.52192 3.52186C1.53601 5.50777 0.313216 8.12983 0.0682539 10.9276C-0.176708 13.7254 0.571823 16.5201 2.18241 18.8209C3.79299 21.1217 6.16267 22.7815 8.87533 23.509C11.588 24.2364 14.4702 23.9849 17.0159 22.7987L21.2225 23.8495C21.5854 23.9401 21.9656 23.9353 22.3261 23.8354C22.6865 23.7355 23.015 23.544 23.2795 23.2794C23.544 23.0149 23.7355 22.6865 23.8354 22.326C23.9353 21.9655 23.9402 21.5853 23.8495 21.2224L22.7987 17.0158ZM7.66672 14.1667C7.23819 14.1667 6.81929 14.0396 6.46298 13.8015C6.10667 13.5634 5.82897 13.225 5.66498 12.8291C5.50099 12.4332 5.45808 11.9976 5.54168 11.5773C5.62528 11.157 5.83164 10.7709 6.13465 10.4679C6.43766 10.1649 6.82373 9.95856 7.24402 9.87495C7.66431 9.79135 8.09996 9.83426 8.49586 9.99825C8.89177 10.1622 9.23016 10.4399 9.46823 10.7963C9.70631 11.1526 9.83338 11.5715 9.83338 12C9.83338 12.5746 9.60511 13.1257 9.19878 13.5321C8.79245 13.9384 8.24135 14.1667 7.66672 14.1667ZM16.3334 14.1667C15.9049 14.1667 15.486 14.0396 15.1296 13.8015C14.7733 13.5634 14.4956 13.225 14.3316 12.8291C14.1677 12.4332 14.1247 11.9976 14.2083 11.5773C14.2919 11.157 14.4983 10.7709 14.8013 10.4679C15.1043 10.1649 15.4904 9.95856 15.9107 9.87495C16.331 9.79135 16.7666 9.83426 17.1625 9.99825C17.5584 10.1622 17.8968 10.4399 18.1349 10.7963C18.373 11.1526 18.5 11.5715 18.5 12C18.5 12.5746 18.2718 13.1257 17.8654 13.5321C17.4591 13.9384 16.908 14.1667 16.3334 14.1667Z" fill="white"/>
</svg>
