<svg width="24" height="24" viewBox="0 0 24 24" fill="none" xmlns="http://www.w3.org/2000/svg">
<rect width="24" height="24" transform="translate(0 -0.00115967)" fill="#011934"/>
<path d="M23.5881 8.18996L12.5881 0.189979C12.4172 0.0657525 12.2114 -0.00115967 12.0001 -0.00115967C11.7888 -0.00115967 11.583 0.0657525 11.4121 0.189979L0.412113 8.18996C0.197552 8.34591 0.0537299 8.5807 0.0122843 8.84269C-0.00823741 8.97241 -0.00300728 9.10491 0.0276761 9.23261C0.0583595 9.36031 0.113895 9.48072 0.191113 9.58696C0.26833 9.6932 0.365716 9.78319 0.477712 9.85179C0.589707 9.92039 0.714118 9.96626 0.843842 9.98678C1.10583 10.0282 1.37355 9.9639 1.58811 9.80796L3.00011 8.78096V20.9989C3.0017 21.5289 3.21292 22.0367 3.58765 22.4114C3.96238 22.7861 4.47017 22.9973 5.00011 22.9989H9.00011V13.9989C9.00011 13.7337 9.10547 13.4794 9.29301 13.2918C9.48054 13.1043 9.7349 12.9989 10.0001 12.9989H14.0001C14.2653 12.9989 14.5197 13.1043 14.7072 13.2918C14.8948 13.4794 15.0001 13.7337 15.0001 13.9989V22.9989H19.0001C19.5301 22.9973 20.0378 22.7861 20.4126 22.4114C20.7873 22.0367 20.9985 21.5289 21.0001 20.9989V8.78096L22.4121 9.80796C22.5184 9.88517 22.6388 9.94071 22.7665 9.97139C22.8942 10.0021 23.0267 10.0073 23.1564 9.98678C23.2861 9.96626 23.4105 9.92039 23.5225 9.85179C23.6345 9.78319 23.7319 9.6932 23.8091 9.58696C23.8863 9.48072 23.9419 9.36031 23.9725 9.23261C24.0032 9.10491 24.0085 8.97241 23.9879 8.84269C23.9674 8.71297 23.9215 8.58855 23.8529 8.47656C23.7843 8.36456 23.6944 8.26718 23.5881 8.18996Z" fill="white"/>
</svg>
