<svg width="24" height="24" viewBox="0 0 24 24" fill="none" xmlns="http://www.w3.org/2000/svg">
<g clip-path="url(#clip0_2207_4)">
<path d="M12.5881 0.191139C12.4172 0.0669123 12.2114 0 12.0001 0C11.7888 0 11.583 0.0669123 11.4121 0.191139L0.412117 8.19114C0.197557 8.34709 0.0537341 8.58188 0.0122885 8.84387C-0.029157 9.10586 0.0351694 9.37358 0.191117 9.58814C0.347064 9.8027 0.581858 9.94652 0.843846 9.98797C1.10583 10.0294 1.37356 9.96509 1.58812 9.80914L2.00012 9.50914V21.0001C2.00012 21.7958 2.31619 22.5589 2.8788 23.1215C3.44141 23.6841 4.20447 24.0001 5.00012 24.0001H19.0001C19.7958 24.0001 20.5588 23.6841 21.1214 23.1215C21.684 22.5589 22.0001 21.7958 22.0001 21.0001V9.50914L22.4121 9.80914C22.5184 9.88636 22.6388 9.94189 22.7665 9.97258C22.8942 10.0033 23.0267 10.0085 23.1564 9.98797C23.2861 9.96745 23.4105 9.92157 23.5225 9.85297C23.6345 9.78437 23.7319 9.69438 23.8091 9.58814C23.8863 9.4819 23.9419 9.36149 23.9726 9.23379C24.0032 9.10609 24.0085 8.97359 23.9879 8.84387C23.9674 8.71414 23.9216 8.58973 23.8529 8.47774C23.7843 8.36574 23.6944 8.26836 23.5881 8.19114L12.5881 0.191139ZM10.0001 22.0001V14.0001H14.0001V22.0001H10.0001ZM20.0001 21.0001C20.0001 21.2654 19.8948 21.5197 19.7072 21.7072C19.5197 21.8948 19.2653 22.0001 19.0001 22.0001H16.0001V14.0001C16.0001 13.4697 15.7894 12.961 15.4143 12.5859C15.0393 12.2109 14.5305 12.0001 14.0001 12.0001H10.0001C9.46968 12.0001 8.96098 12.2109 8.5859 12.5859C8.21083 12.961 8.00012 13.4697 8.00012 14.0001V22.0001H5.00012C4.7349 22.0001 4.48055 21.8948 4.29301 21.7072C4.10547 21.5197 4.00012 21.2654 4.00012 21.0001V8.05414L12.0001 2.23614L20.0001 8.05414V21.0001Z" fill="white"/>
</g>
<defs>
<clipPath id="clip0_2207_4">
<rect width="24" height="24" fill="white"/>
</clipPath>
</defs>
</svg>
