<?xml version="1.0" encoding="utf-8"?>
<svg viewBox="0 0 25 25" fill="none" xmlns="http://www.w3.org/2000/svg">
  <path d="M12.5001 0.416656C9.30803 0.457364 6.25819 1.7435 4.00089 4.0008C1.74359 6.2581 0.457456 9.30794 0.416748 12.5C0.43167 14.3595 0.875577 16.1905 1.71391 17.8504C2.55224 19.5103 3.76237 20.9543 5.25008 22.07V22.1667H5.37091C7.41684 23.7344 9.92252 24.5841 12.5001 24.5841C15.0776 24.5841 17.5833 23.7344 19.6292 22.1667H19.7501V22.07C21.2378 20.9543 22.4479 19.5103 23.2863 17.8504C24.1246 16.1905 24.5685 14.3595 24.5834 12.5C24.5427 9.30794 23.2566 6.2581 20.9993 4.0008C18.742 1.7435 15.6921 0.457364 12.5001 0.416656ZM7.75133 20.8737C7.92773 20.0659 8.37501 19.3426 9.01897 18.824C9.66294 18.3053 10.4649 18.0223 11.2917 18.0221H13.7084C14.5353 18.0223 15.3372 18.3053 15.9812 18.824C16.6251 19.3426 17.0724 20.0659 17.2488 20.8737C15.8095 21.7206 14.17 22.1671 12.5001 22.1671C10.8302 22.1671 9.19062 21.7206 7.75133 20.8737ZM19.2788 19.315C18.8192 18.2166 18.0453 17.2784 17.0542 16.6184C16.0631 15.9584 14.8991 15.606 13.7084 15.6054H11.2917C10.101 15.606 8.93703 15.9584 7.94597 16.6184C6.9549 17.2784 6.18095 18.2166 5.72133 19.315C4.81588 18.4244 4.09479 17.3642 3.59927 16.1948C3.10375 15.0255 2.84351 13.77 2.83341 12.5C2.86476 9.94597 3.89327 7.50538 5.69937 5.69928C7.50547 3.89318 9.94606 2.86466 12.5001 2.83332C15.0541 2.86466 17.4947 3.89318 19.3008 5.69928C21.1069 7.50538 22.1354 9.94597 22.1667 12.5C22.1567 13.77 21.8964 15.0255 21.4009 16.1948C20.9054 17.3642 20.1843 18.4244 19.2788 19.315Z" style="fill: rgb(255, 255, 255);" transform="matrix(0.9999999999999999, 0, 0, 0.9999999999999999, -4.440892098500626e-16, 0)"/>
  <path d="M 12.501 4.085 C 11.757 4.068 11.02 4.201 10.331 4.478 C 9.642 4.755 9.015 5.169 8.491 5.696 C 7.965 6.222 7.553 6.85 7.276 7.542 C 7 8.231 6.867 8.972 6.884 9.716 C 6.867 10.461 7 11.201 7.276 11.892 C 7.553 12.583 7.965 13.21 8.491 13.738 C 9.015 14.264 9.642 14.678 10.331 14.955 C 11.02 15.231 11.757 15.365 12.501 15.348 C 13.243 15.365 13.981 15.231 14.67 14.955 C 15.36 14.678 15.985 14.264 16.511 13.738 C 17.036 13.21 17.448 12.583 17.725 11.892 C 18 11.201 18.134 10.461 18.116 9.716 C 18.134 8.972 18 8.231 17.725 7.542 C 17.448 6.85 17.036 6.222 16.511 5.696 C 15.985 5.169 15.36 4.755 14.67 4.478 C 13.981 4.201 13.243 4.068 12.501 4.085 Z M 12.501 12.533 C 12.127 12.55 11.753 12.489 11.404 12.355 C 11.057 12.22 10.739 12.013 10.475 11.748 C 10.211 11.483 10.004 11.165 9.869 10.815 C 9.734 10.467 9.675 10.09 9.692 9.716 C 9.675 9.343 9.734 8.968 9.869 8.618 C 10.004 8.269 10.211 7.951 10.475 7.686 C 10.739 7.421 11.057 7.213 11.404 7.078 C 11.753 6.943 12.127 6.884 12.501 6.9 C 12.874 6.884 13.248 6.943 13.596 7.078 C 13.945 7.213 14.262 7.421 14.526 7.686 C 14.792 7.951 14.996 8.269 15.131 8.618 C 15.266 8.968 15.327 9.343 15.309 9.716 C 15.327 10.09 15.266 10.467 15.131 10.815 C 14.996 11.165 14.792 11.483 14.526 11.748 C 14.262 12.013 13.945 12.22 13.596 12.355 C 13.248 12.489 12.874 12.55 12.501 12.533 Z" style="fill: rgb(255, 255, 255);" transform="matrix(0.9999999999999999, 0, 0, 0.9999999999999999, -4.440892098500626e-16, 0)"/>
</svg>